<?xml version="1.0" encoding="utf-8"?>
<!-- Generator: Adobe Illustrator 25.4.1, SVG Export Plug-In . SVG Version: 6.00 Build 0)  -->
<svg version="1.1" id="Calque_1" xmlns="http://www.w3.org/2000/svg" xmlns:xlink="http://www.w3.org/1999/xlink" x="0px" y="0px"
	 viewBox="0 0 800 800" style="enable-background:new 0 0 800 800;" xml:space="preserve">
<style type="text/css">
	.st0{fill:#FFFFFF;}
</style>
<path class="st0" d="M233.3,33.3c-18.4,0-33.3,14.9-33.3,33.3V100h-33.3c-36.7,0-66.7,30-66.7,66.7v466.7c0,36.7,30,66.7,66.7,66.7
	h202.7c17.1,0,31.5-13.1,32.8-30.1c0-0.3,0-0.6,0.1-0.8c1.5-19.2-13.6-35.7-32.8-35.7H166.7V266.7h466.7v66.7
	c0,18.4,14.9,33.3,33.3,33.3c18.4,0,33.3-14.9,33.3-33.3V166.7c0-36.7-30-66.7-66.7-66.7H600V66.7c0-18.4-14.9-33.3-33.3-33.3
	c-18.4,0-33.3,14.9-33.3,33.3V100H266.7V66.7C266.7,48.3,251.7,33.3,233.3,33.3z M666.7,433.3c-18.4,0-33.3,14.9-33.3,33.3v66.7
	v45.2c-15.2-7.3-32.1-11.8-50-11.8c-64,0-116.7,52.6-116.7,116.7S519.3,800,583.3,800S700,747.4,700,683.3v-150h66.7
	c18.4,0,33.3-14.9,33.3-33.3v-33.3c0-18.4-14.9-33.3-33.3-33.3H666.7z M583.3,633.3c28,0,50,22,50,50s-22,50-50,50s-50-22-50-50
	S555.3,633.3,583.3,633.3z"/>
</svg>
